<svg width="35" height="33" viewBox="0 0 35 33" fill="none" xmlns="http://www.w3.org/2000/svg">
<path d="M9.61041 17.5833H19.9602L16.3568 20.9271L18.5793 22.9895L25.9767 16.125L18.5793 9.26048L16.3568 11.3229L19.9602 14.6667L9.61041 14.6667V17.5833Z" fill="#0766B0"/>
<path fill-rule="evenodd" clip-rule="evenodd" d="M0.18124 16.125C0.18124 7.26544 7.92081 0.0833435 17.4681 0.0833435C27.0153 0.0833435 34.7549 7.26544 34.7549 16.125C34.7549 24.9846 27.0153 32.1667 17.4681 32.1667C7.92081 32.1667 0.18124 24.9846 0.18124 16.125ZM3.3243 16.125C3.3243 23.3737 9.65668 29.25 17.4681 29.25C25.2794 29.25 31.6118 23.3737 31.6118 16.125C31.6118 8.87627 25.2794 3.00001 17.4681 3.00001C9.65668 3.00001 3.3243 8.87627 3.3243 16.125Z" fill="#0766B0"/>
</svg>
