<svg width="20" height="20" viewBox="0 0 20 20" fill="none" xmlns="http://www.w3.org/2000/svg">
<path d="M15 12V10H13V12H15Z" fill="#8692A6"/>
<path d="M11 12H9V10H11V12Z" fill="#8692A6"/>
<path d="M7 12V10H5V12H7Z" fill="#8692A6"/>
<path d="M15 14V16H13V14H15Z" fill="#8692A6"/>
<path d="M9 16H11V14H9V16Z" fill="#8692A6"/>
<path fill-rule="evenodd" clip-rule="evenodd" d="M6 1H14V0H16V1H18C19.1046 1 20 1.89543 20 3V18C20 19.1046 19.1046 20 18 20H2C0.89543 20 0 19.1046 0 18V3C0 1.89543 0.89543 1 2 1H4V0H6V1ZM14 4H16V3H18V6H2V3H4V4H6V3H14V4ZM2 8H18V18H2V8Z" fill="#8692A6"/>
</svg>
