<svg width="117" height="87" viewBox="0 0 117 87" fill="none" xmlns="http://www.w3.org/2000/svg">
<g filter="url(#filter0_d_161_49)">
<rect x="13" y="9" width="90.9455" height="61" rx="8" fill="#1B75BC"/>
</g>
<path d="M37.8584 34.5091H24.7422C23.1604 34.5091 21.873 35.7669 21.873 37.3127V46.1237C21.873 47.6694 23.1602 48.9273 24.7422 48.9273H37.8584C37.9673 48.9273 38.0713 48.8851 38.1482 48.8099L40.6075 46.4069C40.6843 46.3318 40.7276 46.23 40.7276 46.1237V37.3127C40.7276 35.7669 39.4403 34.5091 37.8584 34.5091ZM39.9078 45.958L37.6887 48.1263H24.7422C23.6119 48.1263 22.6928 47.2278 22.6928 46.1238V37.3128C22.6928 36.2086 23.6119 35.3102 24.7422 35.3102H37.8584C38.9887 35.3102 39.9078 36.2086 39.9078 37.3128V45.958Z" fill="#FAD207"/>
<path d="M38.678 39.3152H34.5793C34.3527 39.3152 34.1694 39.4943 34.1694 39.7157C34.1694 39.9371 34.3527 40.1162 34.5793 40.1162H38.678C38.9046 40.1162 39.0879 39.9371 39.0879 39.7157C39.0879 39.4943 38.9046 39.3152 38.678 39.3152Z" fill="#FAD207"/>
<path d="M38.678 43.3202H34.5793C34.3527 43.3202 34.1694 43.4995 34.1694 43.7208C34.1694 43.9421 34.3527 44.1213 34.5793 44.1213H38.678C38.9046 44.1213 39.0879 43.9421 39.0879 43.7208C39.0879 43.4994 38.9046 43.3202 38.678 43.3202Z" fill="#FAD207"/>
<path d="M27.2015 39.3152H23.9224C23.6958 39.3152 23.5126 39.4943 23.5126 39.7157C23.5126 39.9371 23.6958 40.1162 23.9224 40.1162H27.2015C27.428 40.1162 27.6113 39.9371 27.6113 39.7157C27.6113 39.4943 27.428 39.3152 27.2015 39.3152Z" fill="#FAD207"/>
<path d="M27.2015 43.3202H23.9224C23.6958 43.3202 23.5126 43.4995 23.5126 43.7208C23.5126 43.9421 23.6958 44.1213 23.9224 44.1213H27.2015C27.428 44.1213 27.6113 43.9421 27.6113 43.7208C27.6113 43.4994 27.428 43.3202 27.2015 43.3202Z" fill="#FAD207"/>
<path d="M29.6608 44.1213H28.841C28.6153 44.1213 28.4311 43.9418 28.4311 43.7208V39.7157C28.4311 39.4946 28.6153 39.3152 28.841 39.3152C29.0676 39.3152 29.2509 39.1361 29.2509 38.9147C29.2509 38.6933 29.0676 38.5141 28.841 38.5141C28.1629 38.5141 27.6113 39.0531 27.6113 39.7157V43.7208C27.6113 44.3833 28.1629 44.9223 28.841 44.9223H29.6608C29.8873 44.9223 30.0706 44.7432 30.0706 44.5218C30.0706 44.3004 29.8873 44.1213 29.6608 44.1213Z" fill="#FAD207"/>
<path d="M34.5793 39.3152C34.3527 39.3152 34.1694 39.4943 34.1694 39.7157V43.7208C34.1694 43.9417 33.9853 44.1213 33.7595 44.1213H32.9398C32.7133 44.1213 32.5299 44.3004 32.5299 44.5218C32.5299 44.7432 32.7133 44.9223 32.9398 44.9223H33.7595C34.4376 44.9223 34.9892 44.3833 34.9892 43.7208V39.7157C34.9892 39.4943 34.8058 39.3152 34.5793 39.3152Z" fill="#FAD207"/>
<path d="M32.9398 44.1213C32.7133 44.1213 32.5299 44.3004 32.5299 44.5218V46.1238C32.5299 46.3452 32.7133 46.5243 32.9398 46.5243C33.1664 46.5243 33.3497 46.3452 33.3497 46.1238V44.5218C33.3497 44.3004 33.1664 44.1213 32.9398 44.1213Z" fill="#FAD207"/>
<path d="M29.6608 44.1213C29.4342 44.1213 29.2509 44.3004 29.2509 44.5218V46.1238C29.2509 46.3452 29.4342 46.5243 29.6608 46.5243C29.8873 46.5243 30.0706 46.3452 30.0706 46.1238V44.5218C30.0706 44.3004 29.8873 44.1213 29.6608 44.1213Z" fill="#FAD207"/>
<path d="M34.0493 46.6417L33.2296 45.8406C33.0695 45.6842 32.8101 45.6842 32.65 45.8406C32.4899 45.997 32.4899 46.2506 32.65 46.407L33.4697 47.208C33.5497 47.2861 33.6547 47.3253 33.7595 47.3253C33.8644 47.3253 33.9693 47.2861 34.0493 47.208C34.2094 47.0515 34.2094 46.7981 34.0493 46.6417Z" fill="#FAD207"/>
<path d="M29.9505 45.8406C29.7904 45.6842 29.531 45.6842 29.371 45.8406L28.5512 46.6417C28.3911 46.7981 28.3911 47.0516 28.5512 47.208C28.6312 47.2861 28.7361 47.3253 28.841 47.3253C28.9459 47.3253 29.0507 47.2861 29.1308 47.208L29.9505 46.407C30.1105 46.2506 30.1105 45.997 29.9505 45.8406Z" fill="#FAD207"/>
<path d="M32.9398 36.9122C32.7133 36.9122 32.5299 37.0914 32.5299 37.3128V38.9148C32.5299 39.1362 32.7133 39.3153 32.9398 39.3153C33.1664 39.3153 33.3497 39.1362 33.3497 38.9148V37.3128C33.3497 37.0914 33.1664 36.9122 32.9398 36.9122Z" fill="#FAD207"/>
<path d="M29.6608 36.9122C29.4342 36.9122 29.2509 37.0914 29.2509 37.3128V38.9147C29.2509 39.1361 29.4342 39.3153 29.6608 39.3153C29.8873 39.3153 30.0706 39.1362 30.0706 38.9148V37.3128C30.0706 37.0914 29.8873 36.9122 29.6608 36.9122Z" fill="#FAD207"/>
<path d="M34.0493 36.2285C33.8892 36.0721 33.6298 36.0721 33.4697 36.2285L32.65 37.0296C32.4899 37.186 32.4899 37.4395 32.65 37.5959C32.73 37.674 32.835 37.7132 32.9398 37.7132C33.0447 37.7132 33.1496 37.6741 33.2296 37.5959L34.0493 36.7949C34.2094 36.6385 34.2094 36.3849 34.0493 36.2285Z" fill="#FAD207"/>
<path d="M29.9505 37.0296L29.1308 36.2285C28.9707 36.0721 28.7112 36.0721 28.5512 36.2285C28.3911 36.3849 28.3911 36.6385 28.5512 36.7949L29.371 37.5959C29.451 37.674 29.5559 37.7132 29.6608 37.7132C29.7656 37.7132 29.8704 37.6741 29.9505 37.5959C30.1105 37.4395 30.1105 37.186 29.9505 37.0296Z" fill="#FAD207"/>
<path d="M29.6608 38.5142L28.841 38.5141C28.6144 38.5141 28.4311 38.6934 28.4311 38.9148C28.4311 39.1362 28.6144 39.3152 28.841 39.3152L29.6608 39.3153C29.8873 39.3153 30.0706 39.1362 30.0706 38.9148C30.0706 38.6934 29.8873 38.5142 29.6608 38.5142Z" fill="#FAD207"/>
<path d="M23.877 20.0039C23.877 20.2552 23.7858 20.4511 23.6035 20.5918C23.4212 20.7324 23.1738 20.8027 22.8613 20.8027C22.5228 20.8027 22.2624 20.7591 22.0801 20.6718V20.3515C22.1973 20.401 22.3249 20.4401 22.4629 20.4687C22.6009 20.4974 22.7376 20.5117 22.873 20.5117C23.0944 20.5117 23.2611 20.47 23.373 20.3867C23.485 20.3021 23.541 20.1849 23.541 20.0351C23.541 19.9362 23.5208 19.8554 23.4805 19.7929C23.4414 19.7291 23.375 19.6705 23.2812 19.6172C23.1888 19.5638 23.0475 19.5032 22.8574 19.4355C22.5918 19.3405 22.4017 19.2278 22.2871 19.0976C22.1738 18.9674 22.1172 18.7975 22.1172 18.5879C22.1172 18.3678 22.1999 18.1927 22.3652 18.0625C22.5306 17.9323 22.7493 17.8672 23.0215 17.8672C23.3053 17.8672 23.5664 17.9192 23.8047 18.0234L23.7012 18.3125C23.4655 18.2135 23.2363 18.164 23.0137 18.164C22.8379 18.164 22.7005 18.2018 22.6016 18.2773C22.5026 18.3528 22.4531 18.4577 22.4531 18.5918C22.4531 18.6907 22.4714 18.7721 22.5078 18.8359C22.5443 18.8984 22.6055 18.9563 22.6914 19.0097C22.7786 19.0618 22.9115 19.1198 23.0898 19.1836C23.3893 19.2903 23.5951 19.4049 23.707 19.5273C23.8203 19.6497 23.877 19.8086 23.877 20.0039ZM25.4082 20.8027C25.2689 20.8027 25.1413 20.7773 25.0254 20.7265C24.9108 20.6744 24.8145 20.595 24.7363 20.4883H24.7129C24.7285 20.6133 24.7363 20.7317 24.7363 20.8437V21.7246H24.4121V18.623H24.6758L24.7207 18.916H24.7363C24.8197 18.7988 24.9167 18.7142 25.0273 18.6621C25.138 18.61 25.265 18.584 25.4082 18.584C25.6921 18.584 25.9108 18.681 26.0645 18.875C26.2194 19.069 26.2969 19.3411 26.2969 19.6914C26.2969 20.0429 26.2181 20.3164 26.0605 20.5117C25.9043 20.7057 25.6868 20.8027 25.4082 20.8027ZM25.3613 18.8593C25.1426 18.8593 24.9844 18.9199 24.8867 19.041C24.7891 19.1621 24.7389 19.3548 24.7363 19.6191V19.6914C24.7363 19.9922 24.7865 20.2077 24.8867 20.3379C24.987 20.4668 25.1478 20.5312 25.3691 20.5312C25.554 20.5312 25.6986 20.4563 25.8027 20.3066C25.9082 20.1569 25.9609 19.9505 25.9609 19.6875C25.9609 19.4205 25.9082 19.2161 25.8027 19.0742C25.6986 18.931 25.5514 18.8593 25.3613 18.8593ZM28.1816 20.7636L28.1172 20.459H28.1016C27.9948 20.5931 27.888 20.6842 27.7812 20.7324C27.6758 20.7793 27.5436 20.8027 27.3848 20.8027C27.1725 20.8027 27.0059 20.748 26.8848 20.6386C26.765 20.5293 26.7051 20.3737 26.7051 20.1718C26.7051 19.7396 27.0508 19.513 27.7422 19.4922L28.1055 19.4804V19.3476C28.1055 19.1797 28.069 19.056 27.9961 18.9765C27.9245 18.8958 27.8092 18.8554 27.6504 18.8554C27.472 18.8554 27.2702 18.9101 27.0449 19.0195L26.9453 18.7715C27.0508 18.7142 27.166 18.6692 27.291 18.6367C27.4173 18.6041 27.5436 18.5879 27.6699 18.5879C27.9251 18.5879 28.1139 18.6445 28.2363 18.7578C28.36 18.8711 28.4219 19.0527 28.4219 19.3027V20.7636H28.1816ZM27.4492 20.5351C27.651 20.5351 27.8092 20.4798 27.9238 20.3691C28.0397 20.2584 28.0977 20.1035 28.0977 19.9043V19.7109L27.7734 19.7246C27.5156 19.7337 27.3294 19.7741 27.2148 19.8457C27.1016 19.916 27.0449 20.026 27.0449 20.1758C27.0449 20.2929 27.0801 20.3821 27.1504 20.4433C27.222 20.5045 27.3216 20.5351 27.4492 20.5351ZM29.9473 20.8027C29.6374 20.8027 29.3971 20.7077 29.2266 20.5175C29.0573 20.3261 28.9727 20.056 28.9727 19.707C28.9727 19.3489 29.0586 19.0722 29.2305 18.8769C29.4036 18.6816 29.6497 18.584 29.9688 18.584C30.0716 18.584 30.1745 18.595 30.2773 18.6172C30.3802 18.6393 30.4609 18.6653 30.5195 18.6953L30.4199 18.9707C30.3483 18.942 30.2702 18.9186 30.1855 18.9004C30.1009 18.8808 30.026 18.8711 29.9609 18.8711C29.526 18.8711 29.3086 19.1484 29.3086 19.7031C29.3086 19.9661 29.3613 20.1679 29.4668 20.3086C29.5736 20.4492 29.7311 20.5195 29.9395 20.5195C30.1178 20.5195 30.3008 20.4811 30.4883 20.4043V20.6914C30.3451 20.7656 30.1647 20.8027 29.9473 20.8027ZM31.3223 20.7636H30.998V18.623H31.3223V20.7636ZM30.9707 18.0429C30.9707 17.9687 30.9889 17.9147 31.0254 17.8808C31.0618 17.8457 31.1074 17.8281 31.1621 17.8281C31.2142 17.8281 31.2591 17.8457 31.2969 17.8808C31.3346 17.916 31.3535 17.97 31.3535 18.0429C31.3535 18.1159 31.3346 18.1705 31.2969 18.207C31.2591 18.2422 31.2142 18.2597 31.1621 18.2597C31.1074 18.2597 31.0618 18.2422 31.0254 18.207C30.9889 18.1705 30.9707 18.1159 30.9707 18.0429ZM33.8574 19.6914C33.8574 20.0403 33.7695 20.3131 33.5938 20.5097C33.418 20.705 33.1751 20.8027 32.8652 20.8027C32.6738 20.8027 32.5039 20.7578 32.3555 20.6679C32.207 20.5781 32.0924 20.4492 32.0117 20.2812C31.931 20.1133 31.8906 19.9166 31.8906 19.6914C31.8906 19.3424 31.9779 19.0709 32.1523 18.8769C32.3268 18.6816 32.569 18.584 32.8789 18.584C33.1784 18.584 33.416 18.6836 33.5918 18.8828C33.7689 19.082 33.8574 19.3515 33.8574 19.6914ZM32.2266 19.6914C32.2266 19.9648 32.2812 20.1731 32.3906 20.3164C32.5 20.4596 32.6608 20.5312 32.873 20.5312C33.0853 20.5312 33.2461 20.4603 33.3555 20.3183C33.4661 20.1751 33.5215 19.9661 33.5215 19.6914C33.5215 19.4192 33.4661 19.2129 33.3555 19.0722C33.2461 18.9303 33.084 18.8593 32.8691 18.8593C32.6569 18.8593 32.4967 18.929 32.3887 19.0683C32.2806 19.2077 32.2266 19.4153 32.2266 19.6914ZM35.4824 17.9082H36.3711C36.776 17.9082 37.0697 17.9661 37.252 18.082C37.4355 18.1966 37.5273 18.3795 37.5273 18.6308C37.5273 18.8014 37.487 18.9414 37.4062 19.0508C37.3268 19.1601 37.2207 19.2259 37.0879 19.248V19.2675C37.2689 19.3079 37.3991 19.3834 37.4785 19.4941C37.5592 19.6048 37.5996 19.7519 37.5996 19.9355C37.5996 20.1959 37.5052 20.3991 37.3164 20.5449C37.1289 20.6907 36.8737 20.7636 36.5508 20.7636H35.4824V17.9082ZM36.0879 19.039H36.4395C36.6035 19.039 36.722 19.0136 36.7949 18.9629C36.8691 18.9121 36.9062 18.8281 36.9062 18.7109C36.9062 18.6015 36.8659 18.5234 36.7852 18.4765C36.7057 18.4284 36.5794 18.4043 36.4062 18.4043H36.0879V19.039ZM36.0879 19.5195V20.2636H36.4824C36.6491 20.2636 36.7721 20.2317 36.8516 20.1679C36.931 20.1041 36.9707 20.0065 36.9707 19.875C36.9707 19.638 36.8014 19.5195 36.4629 19.5195H36.0879ZM39.918 20.7636L39.7109 20.084H38.6699L38.4629 20.7636H37.8105L38.8184 17.8965H39.5586L40.5703 20.7636H39.918ZM39.5664 19.5761C39.375 18.9603 39.2669 18.6119 39.2422 18.5312C39.2188 18.4505 39.2018 18.3867 39.1914 18.3398C39.1484 18.5065 39.0254 18.9186 38.8223 19.5761H39.5664ZM43.4648 20.7636H42.6953L41.4531 18.6035H41.4355C41.4603 18.985 41.4727 19.2571 41.4727 19.4199V20.7636H40.9316V17.9082H41.6953L42.9355 20.0468H42.9492C42.9297 19.6758 42.9199 19.4134 42.9199 19.2597V17.9082H43.4648V20.7636ZM46.4824 20.7636H45.7949L45.0469 19.5605L44.791 19.7441V20.7636H44.1855V17.9082H44.791V19.2148L45.0293 18.8789L45.8027 17.9082H46.4746L45.4785 19.1718L46.4824 20.7636Z" fill="#DFFBF3"/>
<path d="M23.1562 56.5428L23.0723 57.3142L23.8496 57.0974L23.9004 57.4529L23.1562 57.5135L23.6406 58.1502L23.3047 58.3338L22.9609 57.6267L22.6484 58.3338L22.3047 58.1502L22.7773 57.5135L22.041 57.4529L22.0977 57.0974L22.8613 57.3142L22.7773 56.5428H23.1562ZM25.3633 56.5428L25.2793 57.3142L26.0566 57.0974L26.1074 57.4529L25.3633 57.5135L25.8477 58.1502L25.5117 58.3338L25.168 57.6267L24.8555 58.3338L24.5117 58.1502L24.9844 57.5135L24.248 57.4529L24.3047 57.0974L25.0684 57.3142L24.9844 56.5428H25.3633ZM27.5703 56.5428L27.4863 57.3142L28.2637 57.0974L28.3145 57.4529L27.5703 57.5135L28.0547 58.1502L27.7188 58.3338L27.375 57.6267L27.0625 58.3338L26.7188 58.1502L27.1914 57.5135L26.4551 57.4529L26.5117 57.0974L27.2754 57.3142L27.1914 56.5428H27.5703ZM29.7773 56.5428L29.6934 57.3142L30.4707 57.0974L30.5215 57.4529L29.7773 57.5135L30.2617 58.1502L29.9258 58.3338L29.582 57.6267L29.2695 58.3338L28.9258 58.1502L29.3984 57.5135L28.6621 57.4529L28.7188 57.0974L29.4824 57.3142L29.3984 56.5428H29.7773ZM32.9395 57.7576C33.2155 57.7576 33.4349 57.8351 33.5977 57.99C33.7617 58.145 33.8438 58.3572 33.8438 58.6267C33.8438 58.9457 33.7454 59.1912 33.5488 59.3631C33.3522 59.5349 33.071 59.6209 32.7051 59.6209C32.3874 59.6209 32.1309 59.5694 31.9355 59.4666V58.9451C32.0384 58.9998 32.1582 59.0447 32.2949 59.0799C32.4316 59.1137 32.5612 59.1306 32.6836 59.1306C33.0521 59.1306 33.2363 58.9796 33.2363 58.6775C33.2363 58.3898 33.0456 58.2459 32.6641 58.2459C32.5951 58.2459 32.5189 58.253 32.4355 58.2674C32.3522 58.2804 32.2845 58.2947 32.2324 58.3103L31.9922 58.1814L32.0996 56.7263H33.6484V57.2381H32.6289L32.5762 57.7986L32.6445 57.7849C32.724 57.7667 32.8223 57.7576 32.9395 57.7576ZM36.2461 58.99H35.9023V59.5818H35.3125V58.99H34.0938V58.5701L35.3457 56.7263H35.9023V58.5213H36.2461V58.99ZM35.3125 58.5213V58.0369C35.3125 57.9562 35.3158 57.839 35.3223 57.6853C35.3288 57.5317 35.334 57.4425 35.3379 57.4178H35.3223C35.2741 57.5245 35.2161 57.6287 35.1484 57.7303L34.625 58.5213H35.3125ZM38.3555 57.365C38.3555 57.5434 38.3014 57.6951 38.1934 57.8201C38.0853 57.9451 37.9336 58.031 37.7383 58.0779V58.0896C37.9688 58.1183 38.1432 58.1886 38.2617 58.3006C38.3802 58.4112 38.4395 58.561 38.4395 58.7498C38.4395 59.0245 38.3398 59.2387 38.1406 59.3924C37.9414 59.5447 37.6569 59.6209 37.2871 59.6209C36.9772 59.6209 36.7025 59.5694 36.4629 59.4666V58.9529C36.5736 59.0089 36.6953 59.0545 36.8281 59.0896C36.9609 59.1248 37.0924 59.1424 37.2227 59.1424C37.4219 59.1424 37.569 59.1085 37.6641 59.0408C37.7591 58.9731 37.8066 58.8644 37.8066 58.7146C37.8066 58.5805 37.752 58.4855 37.6426 58.4295C37.5332 58.3735 37.3587 58.3455 37.1191 58.3455H36.9023V57.8826H37.123C37.3444 57.8826 37.5059 57.854 37.6074 57.7967C37.7103 57.7381 37.7617 57.6385 37.7617 57.4978C37.7617 57.2817 37.6263 57.1736 37.3555 57.1736C37.2617 57.1736 37.166 57.1892 37.0684 57.2205C36.972 57.2517 36.8646 57.3058 36.7461 57.3826L36.4668 56.9666C36.7272 56.7791 37.0378 56.6853 37.3984 56.6853C37.694 56.6853 37.9271 56.7452 38.0977 56.865C38.2695 56.9848 38.3555 57.1515 38.3555 57.365ZM40.248 59.5818H39.6445V57.9295L39.6504 57.658L39.6602 57.3611C39.5599 57.4614 39.4902 57.5271 39.4512 57.5584L39.123 57.8221L38.832 57.4588L39.752 56.7263H40.248V59.5818Z" fill="#DFFBF3"/>
<path d="M94.9873 19.8711C94.9873 20.0781 94.9124 20.2448 94.7627 20.3711C94.613 20.4961 94.4033 20.5709 94.1338 20.5957V20.9961H93.8662V20.6035C93.5485 20.597 93.2699 20.541 93.0303 20.4355V19.9199C93.1436 19.9759 93.2796 20.0254 93.4385 20.0683C93.5986 20.1113 93.7412 20.1367 93.8662 20.1445V19.539L93.7354 19.4883C93.4775 19.3867 93.2946 19.2767 93.1865 19.1582C93.0798 19.0384 93.0264 18.8906 93.0264 18.7148C93.0264 18.526 93.0999 18.3711 93.2471 18.25C93.3955 18.1276 93.6019 18.0534 93.8662 18.0273V17.7285H94.1338V18.0195C94.432 18.0325 94.7015 18.0924 94.9424 18.1992L94.7588 18.6562C94.5557 18.5729 94.3473 18.5221 94.1338 18.5039V19.08C94.3877 19.1777 94.568 19.2623 94.6748 19.334C94.7829 19.4056 94.8617 19.4843 94.9111 19.5703C94.9619 19.6562 94.9873 19.7565 94.9873 19.8711ZM94.3994 19.9004C94.3994 19.8457 94.3773 19.7994 94.333 19.7617C94.2887 19.7239 94.2223 19.6849 94.1338 19.6445V20.1308C94.3109 20.1009 94.3994 20.0241 94.3994 19.9004ZM93.6143 18.7148C93.6143 18.7721 93.6338 18.8196 93.6729 18.8574C93.7132 18.8938 93.7777 18.9316 93.8662 18.9707V18.5117C93.6982 18.5364 93.6143 18.6041 93.6143 18.7148Z" fill="#DFFBF3"/>
<circle cx="85.0914" cy="55.5818" r="5.54545" fill="#FFE70B" fill-opacity="0.8"/>
<circle cx="90.6363" cy="55.5818" r="5.54545" fill="#FF0B0B" fill-opacity="0.8"/>
<defs>
<filter id="filter0_d_161_49" x="0" y="0" width="116.945" height="87" filterUnits="userSpaceOnUse" color-interpolation-filters="sRGB">
<feFlood flood-opacity="0" result="BackgroundImageFix"/>
<feColorMatrix in="SourceAlpha" type="matrix" values="0 0 0 0 0 0 0 0 0 0 0 0 0 0 0 0 0 0 127 0" result="hardAlpha"/>
<feMorphology radius="3" operator="dilate" in="SourceAlpha" result="effect1_dropShadow_161_49"/>
<feOffset dy="4"/>
<feGaussianBlur stdDeviation="5"/>
<feColorMatrix type="matrix" values="0 0 0 0 0.105882 0 0 0 0 0.458824 0 0 0 0 0.737255 0 0 0 0.25 0"/>
<feBlend mode="normal" in2="BackgroundImageFix" result="effect1_dropShadow_161_49"/>
<feBlend mode="normal" in="SourceGraphic" in2="effect1_dropShadow_161_49" result="shape"/>
</filter>
</defs>
</svg>
