<svg width="35" height="33" viewBox="0 0 35 33" fill="none" xmlns="http://www.w3.org/2000/svg">
<path d="M22.615 10.7188L14.2971 18.4376L10.6937 15.0938L8.47126 17.1562L14.2971 22.5624L24.8375 12.7812L22.615 10.7188Z" fill="#1b75bc"/>
<path fill-rule="evenodd" clip-rule="evenodd" d="M17.4401 32.1667C7.89289 32.1667 0.15332 24.9846 0.15332 16.125C0.15332 7.26544 7.89289 0.0833435 17.4401 0.0833435C26.9874 0.0833435 34.727 7.26544 34.727 16.125C34.727 24.9846 26.9874 32.1667 17.4401 32.1667ZM17.4401 29.25C25.2515 29.25 31.5839 23.3737 31.5839 16.125C31.5839 8.87627 25.2515 3.00001 17.4401 3.00001C9.62876 3.00001 3.29638 8.87627 3.29638 16.125C3.29638 23.3737 9.62876 29.25 17.4401 29.25Z" fill="#1b75bc"/>
</svg>
