<svg width="23" height="22" viewBox="0 0 23 22" fill="none" xmlns="http://www.w3.org/2000/svg">
<path d="M16.9065 11.7071L15.4923 10.2929L12.9567 12.8284L12.9567 5.34315L10.9567 5.34315V12.8284L8.42121 10.2929L7.00699 11.7071L11.9567 16.6569L16.9065 11.7071Z" fill="#1B75BC"/>
<path fill-rule="evenodd" clip-rule="evenodd" d="M19.7349 18.7782C15.4391 23.0739 8.47433 23.0739 4.17857 18.7782C-0.117202 14.4824 -0.117202 7.51759 4.17857 3.22183C8.47433 -1.07394 15.4391 -1.07394 19.7349 3.22183C24.0307 7.51759 24.0307 14.4824 19.7349 18.7782ZM18.3207 17.364C21.8354 13.8492 21.8354 8.15076 18.3207 4.63604C14.806 1.12132 9.1075 1.12132 5.59278 4.63604C2.07806 8.15076 2.07806 13.8492 5.59278 17.364C9.1075 20.8787 14.806 20.8787 18.3207 17.364Z" fill="#1B75BC"/>
</svg>
