<svg width="17" height="25" viewBox="0 0 17 25" fill="none" xmlns="http://www.w3.org/2000/svg">
<path d="M4.65194 17.9127V15.7012H10.1609V17.9127H4.65194Z" fill="#494949"/>
<path d="M4.65194 11.2782V13.4897H11.9972V11.2782H4.65194Z" fill="#494949"/>
<path fill-rule="evenodd" clip-rule="evenodd" d="M1.89747 0.220703H11.4593L16.588 6.39717V22.3356C16.588 23.557 15.7658 24.5471 14.7517 24.5471H1.89747C0.883302 24.5471 0.0611572 23.557 0.0611572 22.3356V2.4322C0.0611572 1.21082 0.883302 0.220703 1.89747 0.220703ZM9.24272 2.4322H1.89747V22.3356H14.7517V9.06668H11.079C10.0649 9.06668 9.24272 8.07656 9.24272 6.85519V2.4322ZM11.079 2.89021V6.85519H14.3713L11.079 2.89021Z" fill="#494949"/>
</svg>
