<svg width="23" height="22" viewBox="0 0 23 22" fill="none" xmlns="http://www.w3.org/2000/svg">
<path d="M16.9068 11.7071L15.4925 10.2929L12.957 12.8284L12.957 5.34315L10.957 5.34315V12.8284L8.42148 10.2929L7.00727 11.7071L11.957 16.6569L16.9068 11.7071Z" fill="#1B75BC"/>
<path fill-rule="evenodd" clip-rule="evenodd" d="M19.7352 18.7782C15.4394 23.0739 8.47461 23.0739 4.17884 18.7782C-0.116927 14.4824 -0.116927 7.51759 4.17884 3.22183C8.47461 -1.07394 15.4394 -1.07394 19.7352 3.22183C24.031 7.51759 24.031 14.4824 19.7352 18.7782ZM18.321 17.364C21.8357 13.8492 21.8357 8.15076 18.321 4.63604C14.8063 1.12132 9.10777 1.12132 5.59305 4.63604C2.07833 8.15076 2.07833 13.8492 5.59305 17.364C9.10777 20.8787 14.8063 20.8787 18.321 17.364Z" fill="#1B75BC"/>
</svg>
