<svg width="28" height="32" viewBox="0 0 28 32" fill="none" xmlns="http://www.w3.org/2000/svg">
<path d="M24.7306 30.399H3.34408C3.02898 30.399 2.72679 30.2739 2.50398 30.051C2.28118 29.8282 2.15601 29.526 2.15601 29.2109V3.07333C2.15601 2.75823 2.28118 2.45604 2.50398 2.23323C2.72679 2.01043 3.02898 1.88525 3.34408 1.88525H17.6021L25.9186 10.2018V29.2109C25.9186 29.367 25.8879 29.5215 25.8282 29.6656C25.7685 29.8097 25.681 29.9407 25.5707 30.051C25.4603 30.1614 25.3294 30.2489 25.1852 30.3086C25.0411 30.3683 24.8866 30.399 24.7306 30.399Z" stroke="#494949" stroke-width="2.37615" stroke-linecap="round" stroke-linejoin="round"/>
<path d="M17.6021 1.88538V10.2019H25.9198" stroke="#1B75BC" stroke-width="2.37615" stroke-linecap="round" stroke-linejoin="round"/>
</svg>
