<svg width="40" height="39" viewBox="0 0 40 39" fill="none" xmlns="http://www.w3.org/2000/svg">
<path d="M30.6928 17.5459V30.7467C30.6928 31.0268 30.5816 31.2954 30.3835 31.4934C30.1855 31.6915 29.9168 31.8028 29.6368 31.8028H6.93136C6.61626 31.8028 6.31407 31.6776 6.09127 31.4548C5.86846 31.232 5.74329 30.9298 5.74329 30.6147V13.9817C5.74329 13.6666 5.86846 13.3644 6.09127 13.1416C6.31407 12.9188 6.61626 12.7936 6.93136 12.7936H13.6638C13.9208 12.7936 14.171 12.877 14.3766 13.0312L18.4953 16.1202C18.7009 16.2744 18.9511 16.3578 19.2081 16.3578H29.5048C29.8199 16.3578 30.122 16.483 30.3448 16.7058C30.5677 16.9286 30.6928 17.2308 30.6928 17.5459Z" stroke="#1565D8" stroke-width="2.37615" stroke-linecap="round" stroke-linejoin="round"/>
<path d="M10.4955 12.7936V9.22933C10.4955 8.91424 10.6207 8.61205 10.8435 8.38924C11.0663 8.16643 11.3685 8.04126 11.6836 8.04126H18.416C18.673 8.04126 18.9232 8.12464 19.1288 8.27887L23.2475 11.3679C23.4531 11.5221 23.7033 11.6055 23.9603 11.6055H34.257C34.572 11.6055 34.8742 11.7307 35.097 11.9535C35.3199 12.1763 35.445 12.4785 35.445 12.7936V25.9944C35.445 26.1331 35.4177 26.2704 35.3646 26.3985C35.3116 26.5266 35.2338 26.6431 35.1357 26.7411C35.0376 26.8392 34.9212 26.917 34.7931 26.97C34.665 27.0231 34.5276 27.0504 34.389 27.0504H30.6927" stroke="#1565D8" stroke-width="2.37615" stroke-linecap="round" stroke-linejoin="round"/>
</svg>
