<svg width="24" height="27" viewBox="0 0 24 27" fill="none" xmlns="http://www.w3.org/2000/svg">
<path d="M11.9993 19C13.38 19 14.4993 17.8807 14.4993 16.5C14.4993 15.1193 13.38 14 11.9993 14C10.6186 14 9.49927 15.1193 9.49927 16.5C9.49927 17.8807 10.6186 19 11.9993 19Z" stroke="white" stroke-width="2" stroke-linecap="round" stroke-linejoin="round"/>
<path d="M11.9993 19V22" stroke="white" stroke-width="2" stroke-linecap="round" stroke-linejoin="round"/>
<path d="M21.9993 10H1.99927C1.44698 10 0.999268 10.4477 0.999268 11V25C0.999268 25.5523 1.44698 26 1.99927 26H21.9993C22.5516 26 22.9993 25.5523 22.9993 25V11C22.9993 10.4477 22.5516 10 21.9993 10Z" stroke="white" stroke-width="2" stroke-linecap="round" stroke-linejoin="round"/>
<path d="M7.49927 10V5.5C7.49927 4.30653 7.97337 3.16193 8.81729 2.31802C9.6612 1.47411 10.8058 1 11.9993 1C13.1927 1 14.3373 1.47411 15.1812 2.31802C16.0252 3.16193 16.4993 4.30653 16.4993 5.5V10" stroke="white" stroke-width="2" stroke-linecap="round" stroke-linejoin="round"/>
</svg>
