<svg width="26" height="26" viewBox="0 0 26 26" fill="none" xmlns="http://www.w3.org/2000/svg">
<path fill-rule="evenodd" clip-rule="evenodd" d="M11.4935 5.44675C12.2436 6.27815 12.0058 7.22004 11.3426 8.11375C11.1854 8.32563 11.0041 8.53441 10.7852 8.76446C10.6802 8.87488 10.5982 8.95793 10.4269 9.12946L9.44541 10.1115C9.31684 10.24 10.1947 11.9942 11.8984 13.6996C13.6011 15.404 15.3552 16.2825 15.4844 16.1532L16.4652 15.1719C17.0053 14.6312 17.2913 14.3704 17.6844 14.1125C18.5015 13.5765 19.3927 13.4308 20.1444 14.1029C22.5987 15.8585 23.9875 16.9358 24.6679 17.6427C25.995 19.0217 25.8211 21.1442 24.6754 22.3551C24.2782 22.775 23.7744 23.279 23.1795 23.8526C19.5807 27.4533 11.9856 25.262 6.16483 19.4355C0.342693 13.6076 -1.84743 6.01182 1.74381 2.41865C2.38854 1.76379 2.60111 1.55133 3.22902 0.932623C4.39808 -0.21929 6.61858 -0.399656 7.96842 0.933763C8.67844 1.63515 9.81039 3.09158 11.4935 5.44675ZM18.2746 16.9819L17.2936 17.9634C15.6261 19.6318 12.7864 18.2096 10.0888 15.5094C7.38932 12.8073 5.96876 9.96859 7.63679 8.3007L8.6173 7.31965C8.7742 7.1626 8.84597 7.08984 8.93211 6.99931C9.04949 6.87595 9.14594 6.76761 9.22316 6.67174C7.73149 4.59386 6.71747 3.29549 6.17083 2.75549C5.88852 2.47662 5.25637 2.52796 5.0243 2.75663C4.40536 3.3665 4.20191 3.56985 3.55978 4.22201C1.25026 6.53281 3.01828 12.6647 7.97442 17.6257C12.929 22.5851 19.0599 24.354 21.387 22.0259C21.9727 21.461 22.45 20.9835 22.8173 20.5952C23.0828 20.3146 23.1302 19.7357 22.8249 19.4184C22.3163 18.89 21.0712 17.9192 18.9212 16.3752C18.7645 16.5014 18.5718 16.6843 18.2746 16.9819Z" fill="#8692A6"/>
<path d="M23.0462 11.5211V8.96114H18.4564L25.2313 2.18624L23.4211 0.376046L16.6462 7.15095V2.56114H14.0862V11.5211H23.0462Z" fill="#8692A6"/>
</svg>
