<svg width="32" height="32" viewBox="0 0 32 32" fill="none" xmlns="http://www.w3.org/2000/svg">
<path d="M26.2812 4.48469L2.99026 11.0539C2.79432 11.1092 2.61991 11.223 2.49035 11.38C2.36079 11.537 2.28225 11.7299 2.26522 11.9328C2.2482 12.1356 2.2935 12.3389 2.39507 12.5153C2.49664 12.6917 2.64965 12.833 2.83363 12.9201L13.535 17.9892C13.7437 18.0881 13.9118 18.2561 14.0106 18.4648L19.0797 29.1662C19.1669 29.3502 19.3081 29.5032 19.4845 29.6048C19.661 29.7063 19.8642 29.7516 20.0671 29.7346C20.2699 29.7176 20.4628 29.639 20.6198 29.5095C20.7769 29.3799 20.8906 29.2055 20.9459 29.0096L27.5151 5.7186C27.5634 5.54752 27.5652 5.36666 27.5203 5.19466C27.4754 5.02266 27.3855 4.86573 27.2598 4.74004C27.1341 4.61434 26.9772 4.52442 26.8052 4.47954C26.6332 4.43466 26.4523 4.43644 26.2812 4.48469Z" stroke="#FF6600" stroke-width="3" stroke-linecap="round" stroke-linejoin="round"/>
<path d="M13.8574 18.1421L19.5143 12.4852" stroke="#FF6600" stroke-width="3" stroke-linecap="round" stroke-linejoin="round"/>
</svg>
