<svg width="30" height="29" viewBox="0 0 30 29" fill="none" xmlns="http://www.w3.org/2000/svg">
<path d="M24.5218 5.21612V2.53603M24.5218 5.21612L21.9729 4.38793M24.5218 5.21612L22.9465 7.38436M24.5218 5.21612L26.0971 7.38436M24.5218 5.21612L27.0707 4.38793M1.87354 26.6556C3.19155 24.3743 5.08672 22.4799 7.36864 21.1629C9.65057 19.8459 12.2389 19.1526 14.8736 19.1526C17.5083 19.1526 20.0966 19.846 22.3785 21.1631C24.6604 22.4801 26.5556 24.3745 27.8735 26.6559M22.7297 14.0215C22.0881 15.4816 21.0519 16.7338 19.7376 17.6373C18.4233 18.5408 16.883 19.0597 15.2899 19.1357C13.6968 19.2117 12.1141 18.8418 10.7198 18.0676C9.3254 17.2934 8.17466 16.1455 7.39694 14.7531C6.61921 13.3607 6.24533 11.7789 6.31733 10.1857C6.38934 8.59241 6.90438 7.05083 7.80454 5.73425C8.7047 4.41767 9.95429 3.3783 11.4128 2.73302C12.8713 2.08773 14.4809 1.8621 16.0607 2.08151" stroke="#4D4D4D" stroke-width="3" stroke-linecap="round" stroke-linejoin="round"/>
</svg>
