<svg width="27" height="24" viewBox="0 0 27 24" fill="none" xmlns="http://www.w3.org/2000/svg">
<path d="M3.50004 4.5C3.50004 3.67157 2.82846 3 2.00004 3C1.17161 3 0.500038 3.67157 0.500038 4.5H3.50004ZM2.00004 20H0.500038H2.00004ZM2.00166 4.59116L3.50071 4.53786L3.50066 4.5365L2.00166 4.59116ZM4.50004 2V0.5H4.50002L4.50004 2ZM21 3.5C21.8285 3.5 22.5 2.82843 22.5 2C22.5 1.17157 21.8285 0.5 21 0.5V3.5ZM20 14C20 14.2761 19.7762 14.5 19.5 14.5V17.5C21.433 17.5 23 15.933 23 14H20ZM19.5 14.5C19.2239 14.5 19 14.2761 19 14H16C16 15.933 17.567 17.5 19.5 17.5V14.5ZM19 14C19 13.7239 19.2239 13.5 19.5 13.5V10.5C17.567 10.5 16 12.067 16 14H19ZM19.5 13.5C19.7762 13.5 20 13.7239 20 14H23C23 12.067 21.433 10.5 19.5 10.5V13.5ZM0.500038 4.5V20H3.50004V4.5H0.500038ZM0.500038 20C0.500038 20.9283 0.868787 21.8185 1.52516 22.4749L3.64648 20.3536C3.55272 20.2598 3.50004 20.1326 3.50004 20H0.500038ZM1.52516 22.4749C2.18154 23.1313 3.07178 23.5 4.00004 23.5V20.5C3.86743 20.5 3.74025 20.4473 3.64648 20.3536L1.52516 22.4749ZM4.00004 23.5H24V20.5H4.00004V23.5ZM24 23.5C24.6631 23.5 25.299 23.2366 25.7678 22.7678L23.6465 20.6464C23.7403 20.5527 23.8674 20.5 24 20.5V23.5ZM25.7678 22.7678C26.2367 22.2989 26.5 21.663 26.5 21H23.5C23.5 20.8674 23.5527 20.7402 23.6465 20.6464L25.7678 22.7678ZM26.5 21V8H23.5V21H26.5ZM26.5 8C26.5 7.33696 26.2366 6.70108 25.7678 6.23223L23.6465 8.35355C23.5527 8.25978 23.5 8.13261 23.5 8H26.5ZM25.7678 6.23223C25.299 5.76339 24.6631 5.5 24 5.5V8.5C23.8674 8.5 23.7403 8.44732 23.6465 8.35355L25.7678 6.23223ZM24 5.5H4.55995V8.5H24V5.5ZM4.55995 5.5C3.96427 5.5 3.51851 5.03851 3.50071 4.53786L0.502608 4.64446C0.581142 6.85328 2.44446 8.5 4.55995 8.5V5.5ZM3.50066 4.5365C3.49577 4.40219 3.51799 4.26828 3.56601 4.14275L0.764024 3.07089C0.57196 3.57298 0.483068 4.10862 0.502657 4.64582L3.50066 4.5365ZM3.56601 4.14275C3.61403 4.01723 3.68685 3.90267 3.78014 3.80592L1.6205 1.72362C1.24738 2.1106 0.956088 2.56881 0.764024 3.07089L3.56601 4.14275ZM3.78014 3.80592C3.87342 3.70917 3.98525 3.63222 4.10895 3.57965L2.93567 0.818599C2.44092 1.02884 1.99363 1.33664 1.6205 1.72362L3.78014 3.80592ZM4.10895 3.57965C4.23264 3.52709 4.36566 3.5 4.50005 3.5L4.50002 0.5C3.96246 0.500005 3.43041 0.608363 2.93567 0.818599L4.10895 3.57965ZM4.50004 3.5H21V0.5H4.50004V3.5Z" fill="#1b75bc"/>
</svg>
