<svg width="27" height="24" viewBox="0 0 27 24" fill="none" xmlns="http://www.w3.org/2000/svg">
<path d="M3.49949 4.5C3.49949 3.67157 2.82792 3 1.99949 3C1.17106 3 0.499489 3.67157 0.499489 4.5H3.49949ZM1.99949 20H0.499489H1.99949ZM2.00111 4.59116L3.50016 4.53786L3.50012 4.5365L2.00111 4.59116ZM4.49949 2V0.5H4.49947L4.49949 2ZM20.9995 3.5C21.8279 3.5 22.4995 2.82843 22.4995 2C22.4995 1.17157 21.8279 0.5 20.9995 0.5V3.5ZM19.9995 14C19.9995 14.2761 19.7756 14.5 19.4995 14.5V17.5C21.4325 17.5 22.9995 15.933 22.9995 14H19.9995ZM19.4995 14.5C19.2233 14.5 18.9995 14.2761 18.9995 14H15.9995C15.9995 15.933 17.5665 17.5 19.4995 17.5V14.5ZM18.9995 14C18.9995 13.7239 19.2233 13.5 19.4995 13.5V10.5C17.5665 10.5 15.9995 12.067 15.9995 14H18.9995ZM19.4995 13.5C19.7756 13.5 19.9995 13.7239 19.9995 14H22.9995C22.9995 12.067 21.4325 10.5 19.4995 10.5V13.5ZM0.499489 4.5V20H3.49949V4.5H0.499489ZM0.499489 20C0.499489 20.9283 0.868237 21.8185 1.52461 22.4749L3.64594 20.3536C3.55217 20.2598 3.49949 20.1326 3.49949 20H0.499489ZM1.52461 22.4749C2.18099 23.1313 3.07123 23.5 3.99949 23.5V20.5C3.86688 20.5 3.7397 20.4473 3.64594 20.3536L1.52461 22.4749ZM3.99949 23.5H23.9995V20.5H3.99949V23.5ZM23.9995 23.5C24.6625 23.5 25.2984 23.2366 25.7673 22.7678L23.6459 20.6464C23.7397 20.5527 23.8669 20.5 23.9995 20.5V23.5ZM25.7673 22.7678C26.2361 22.2989 26.4995 21.663 26.4995 21H23.4995C23.4995 20.8674 23.5522 20.7402 23.6459 20.6464L25.7673 22.7678ZM26.4995 21V8H23.4995V21H26.4995ZM26.4995 8C26.4995 7.33696 26.2361 6.70108 25.7673 6.23223L23.6459 8.35355C23.5522 8.25978 23.4995 8.13261 23.4995 8H26.4995ZM25.7673 6.23223C25.2984 5.76339 24.6625 5.5 23.9995 5.5V8.5C23.8669 8.5 23.7397 8.44732 23.6459 8.35355L25.7673 6.23223ZM23.9995 5.5H4.5594V8.5H23.9995V5.5ZM4.5594 5.5C3.96373 5.5 3.51796 5.03851 3.50016 4.53786L0.502059 4.64446C0.580593 6.85328 2.44391 8.5 4.5594 8.5V5.5ZM3.50012 4.5365C3.49522 4.40219 3.51744 4.26828 3.56546 4.14275L0.763475 3.07089C0.571411 3.57298 0.482519 4.10862 0.502108 4.64582L3.50012 4.5365ZM3.56546 4.14275C3.61348 4.01723 3.6863 3.90267 3.77959 3.80592L1.61995 1.72362C1.24683 2.1106 0.955538 2.56881 0.763475 3.07089L3.56546 4.14275ZM3.77959 3.80592C3.87287 3.70917 3.9847 3.63222 4.1084 3.57965L2.93512 0.818599C2.44037 1.02884 1.99308 1.33664 1.61995 1.72362L3.77959 3.80592ZM4.1084 3.57965C4.23209 3.52709 4.36511 3.5 4.4995 3.5L4.49947 0.5C3.96191 0.500005 3.42987 0.608363 2.93512 0.818599L4.1084 3.57965ZM4.49949 3.5H20.9995V0.5H4.49949V3.5Z" fill="#1B75BC"/>
</svg>
