<svg width="22" height="22" viewBox="0 0 22 22" fill="none" xmlns="http://www.w3.org/2000/svg">
<path fill-rule="evenodd" clip-rule="evenodd" d="M22 15.5563V6.44365L15.5563 0H6.44365L0 6.44365V15.5563L6.44365 22H15.5563L22 15.5563ZM7.27208 2H14.7279L20 7.27208V14.7279L14.7279 20H7.27208L2 14.7279V7.27208L7.27208 2ZM11.0003 16.9983C11.5528 16.9983 12.0007 16.5506 12.0007 15.9983C12.0007 15.4461 11.5528 14.9983 11.0003 14.9983C10.4479 14.9983 10 15.4461 10 15.9983C10 16.5506 10.4479 16.9983 11.0003 16.9983ZM12.0036 4.99835H10.003V12.9983H12.0036V4.99835Z" fill="#BC421B"/>
</svg>
